<svg width="280" height="46" fill="none" xmlns="http://www.w3.org/2000/svg"><g clip-path="url('#clip0_1977_4246')"><path d="M247.196 7.775c-6.55 0-12.403 3.395-12.403 9.667 0 7.193 10.381 7.69 10.381 11.304 0 1.521-1.744 2.883-4.722 2.883-4.227 0-7.386-1.903-7.386-1.903l-1.351 6.33s3.639 1.607 8.47 1.607c7.161 0 12.796-3.561 12.796-9.94 0-7.602-10.424-8.084-10.424-11.438 0-1.192 1.432-2.498 4.401-2.498 3.351 0 6.085 1.384 6.085 1.384l1.322-6.113s-2.974-1.283-7.169-1.283Zm-59.925.461-.158.923s2.755.504 5.237 1.51c3.196 1.154 3.423 1.825 3.961 3.911l5.865 22.608h7.861l12.111-28.952h-7.843l-7.782 19.684-3.176-16.685c-.291-1.91-1.766-2.999-3.572-2.999h-12.504Zm38.031 0-6.152 28.952h7.479l6.131-28.952h-7.458Zm41.715 0c-1.803 0-2.759.966-3.46 2.653l-10.958 26.299h7.844l1.517-4.384h9.556l.922 4.384h6.921l-6.038-28.952h-6.304Zm1.02 7.822 2.325 10.864h-6.228l3.903-10.864Z" fill="#1434CB"/></g><path stroke="#1434CB" stroke-width="1.073" d="M173.682 5.836v33.766"/><path d="M14.135 38.5c-1.803 0-3.464-.303-4.983-.908a10.603 10.603 0 0 1-3.908-2.704c-1.1-1.198-1.951-2.693-2.557-4.483-.605-1.791-.907-3.847-.907-6.169 0-2.31.29-4.322.87-6.039.593-1.716 1.451-3.21 2.575-4.483A10.891 10.891 0 0 1 9.134 10.9c1.506-.655 3.192-.982 5.057-.982.926 0 1.79.068 2.593.204.815.136 1.569.309 2.26.518.593.186 1.198.42 1.816.704.63.272 1.247.575 1.852.908v4.427h-.296a31.853 31.853 0 0 0-1.242-1.074 12.358 12.358 0 0 0-1.852-1.241 11.946 11.946 0 0 0-2.297-.945c-.827-.247-1.784-.37-2.871-.37a7.9 7.9 0 0 0-3.335.722c-1.05.482-1.97 1.192-2.76 2.13-.778.939-1.383 2.118-1.815 3.538-.432 1.42-.648 3.02-.648 4.798 0 1.89.228 3.52.685 4.89.457 1.359 1.08 2.507 1.871 3.446a7.57 7.57 0 0 0 2.705 2.075 8.089 8.089 0 0 0 3.297.685c1.062 0 2.044-.13 2.945-.389.902-.26 1.704-.587 2.408-.982.68-.383 1.266-.772 1.76-1.167.494-.407.883-.753 1.167-1.037h.278v4.372c-.605.284-1.18.555-1.723.815-.53.259-1.18.512-1.945.76-.803.258-1.55.456-2.241.592-.68.136-1.569.204-2.668.204Zm23.285-5.595v-5.742c-.827.074-1.877.179-3.149.315-1.26.123-2.279.302-3.056.537-.927.284-1.692.723-2.297 1.315-.606.58-.908 1.396-.908 2.445 0 1.186.333 2.081 1 2.686s1.643.908 2.927.908c1.1 0 2.093-.235 2.982-.704a13.278 13.278 0 0 0 2.501-1.76Zm0 2.89c-.284.21-.667.506-1.148.89-.47.37-.927.666-1.371.889-.618.32-1.217.568-1.797.74-.568.173-1.37.26-2.408.26-.852 0-1.661-.16-2.427-.482a6.239 6.239 0 0 1-2.019-1.352c-.556-.568-1-1.266-1.334-2.093a7.113 7.113 0 0 1-.5-2.65c0-1.432.303-2.648.908-3.648.605-1.013 1.562-1.816 2.871-2.409 1.16-.53 2.532-.895 4.112-1.093a66.03 66.03 0 0 1 5.113-.463v-.667c0-.815-.123-1.47-.37-1.963a2.733 2.733 0 0 0-1.038-1.167c-.444-.284-.988-.47-1.63-.556a13.02 13.02 0 0 0-1.982-.148c-.803 0-1.747.123-2.834.37-1.087.235-2.174.58-3.26 1.038h-.204v-3.538c.642-.186 1.562-.39 2.76-.612a19.46 19.46 0 0 1 3.557-.333c1.42 0 2.618.111 3.593.333a6.916 6.916 0 0 1 2.63 1.204 5.162 5.162 0 0 1 1.686 2.205c.37.901.556 2 .556 3.297V38H37.42v-2.204ZM51.387 38.5c-1.383 0-2.68-.186-3.89-.556-1.198-.37-2.192-.766-2.982-1.186V32.85h.185c.296.234.642.494 1.037.778.408.284.945.58 1.612.889.593.272 1.241.512 1.945.722a7.86 7.86 0 0 0 2.223.315c.556 0 1.148-.061 1.778-.185.63-.136 1.1-.303 1.408-.5.432-.284.741-.587.926-.908.198-.32.297-.803.297-1.445 0-.827-.229-1.45-.686-1.87-.444-.42-1.24-.772-2.39-1.056a45.283 45.283 0 0 0-1.74-.39 27.59 27.59 0 0 1-1.983-.481c-1.58-.457-2.729-1.16-3.445-2.112-.716-.963-1.075-2.124-1.075-3.482 0-1.865.704-3.384 2.112-4.557 1.408-1.174 3.279-1.76 5.613-1.76 1.148 0 2.303.142 3.464.426 1.16.284 2.136.642 2.927 1.074v3.724h-.185a10.842 10.842 0 0 0-2.983-1.667 9.324 9.324 0 0 0-3.297-.612c-1.149 0-2.118.241-2.908.723-.79.481-1.186 1.21-1.186 2.186 0 .864.235 1.512.704 1.945.47.42 1.223.765 2.26 1.037.519.136 1.093.272 1.723.408.642.123 1.315.271 2.019.444 1.531.383 2.68 1.019 3.445 1.908.778.89 1.167 2.1 1.167 3.63a6.16 6.16 0 0 1-.537 2.539 5.505 5.505 0 0 1-1.537 2.037 7.88 7.88 0 0 1-2.52 1.408c-.926.321-2.093.482-3.5.482Zm27.601-.5h-3.482V26.217c0-.95-.05-1.834-.148-2.649-.087-.827-.26-1.488-.52-1.982a2.661 2.661 0 0 0-1.185-1.148c-.506-.26-1.198-.39-2.074-.39-.865 0-1.76.235-2.686.705a13.594 13.594 0 0 0-2.686 1.796V38h-3.483V9.175h3.483v10.43c1.037-.927 2.062-1.637 3.075-2.131a7.217 7.217 0 0 1 3.204-.741c2.038 0 3.631.673 4.78 2.019 1.148 1.334 1.722 3.273 1.722 5.817V38Zm18.654-10.411c0-2.47-.377-4.34-1.13-5.613-.753-1.284-1.963-1.926-3.63-1.926-.952 0-1.915.222-2.89.666a11.244 11.244 0 0 0-2.63 1.686v11.856c.876.432 1.654.74 2.333.926a9.08 9.08 0 0 0 2.242.26c1.778 0 3.173-.63 4.186-1.89 1.013-1.26 1.519-3.248 1.519-5.965Zm3.594-.278c0 3.384-.822 6.107-2.464 8.17-1.643 2.062-3.699 3.093-6.169 3.093-1.123 0-2.087-.142-2.89-.426a12.302 12.302 0 0 1-2.352-1.112L87.14 38h-3.26V9.176h3.482v10.3a13.044 13.044 0 0 1 2.853-1.964c1.025-.519 2.186-.778 3.482-.778 2.334 0 4.175.938 5.52 2.815 1.347 1.865 2.02 4.453 2.02 7.762Zm15.171 5.594v-5.742c-.827.074-1.877.179-3.149.315-1.26.123-2.279.302-3.057.537-.926.284-1.692.723-2.297 1.315-.605.58-.907 1.396-.907 2.445 0 1.186.333 2.081 1 2.686s1.642.908 2.927.908c1.099 0 2.093-.235 2.982-.704a13.283 13.283 0 0 0 2.501-1.76Zm0 2.89c-.284.21-.667.506-1.149.89-.469.37-.926.666-1.37.889-.618.32-1.217.568-1.797.74-.568.173-1.371.26-2.408.26-.852 0-1.661-.16-2.427-.482a6.23 6.23 0 0 1-2.019-1.352c-.556-.568-1-1.266-1.334-2.093a7.12 7.12 0 0 1-.5-2.65c0-1.432.303-2.648.908-3.648.605-1.013 1.562-1.816 2.871-2.409 1.161-.53 2.532-.895 4.112-1.093a66.04 66.04 0 0 1 5.113-.463v-.667c0-.815-.124-1.47-.371-1.963a2.73 2.73 0 0 0-1.037-1.167c-.444-.284-.988-.47-1.63-.556a13.018 13.018 0 0 0-1.982-.148c-.803 0-1.748.123-2.834.37-1.087.235-2.174.58-3.261 1.038h-.203v-3.538c.642-.186 1.562-.39 2.76-.612a19.456 19.456 0 0 1 3.556-.333c1.421 0 2.618.111 3.594.333a6.922 6.922 0 0 1 2.631 1.204 5.159 5.159 0 0 1 1.685 2.205c.371.901.556 2 .556 3.297V38h-3.464v-2.204Zm16.598 2.668c-1.421 0-2.724-.217-3.909-.649a8.13 8.13 0 0 1-3.057-2c-.852-.89-1.512-2.007-1.982-3.353-.469-1.359-.704-2.952-.704-4.78 0-1.815.241-3.383.723-4.704.494-1.322 1.148-2.433 1.963-3.335.816-.901 1.828-1.593 3.038-2.075a10.387 10.387 0 0 1 3.928-.74c1.136 0 2.229.16 3.278.481 1.062.321 2.007.692 2.834 1.111v3.91h-.203c-.247-.21-.568-.452-.964-.723-.382-.272-.852-.55-1.407-.834a9.3 9.3 0 0 0-1.705-.648 6.927 6.927 0 0 0-1.889-.278c-1.803 0-3.254.685-4.353 2.056-1.087 1.358-1.63 3.285-1.63 5.78 0 2.445.525 4.353 1.574 5.724 1.062 1.358 2.532 2.037 4.409 2.037a7.7 7.7 0 0 0 3.242-.704 10.098 10.098 0 0 0 2.723-1.815h.203v3.909c-.345.16-.778.358-1.296.592-.519.223-.988.39-1.408.5-.593.173-1.124.303-1.593.39-.469.098-1.075.148-1.815.148Zm26.452-.464h-4.576l-7.724-9.984-1.371 1.334v8.65h-3.482V9.176h3.482v16.876l8.188-8.744h4.334l-8.502 8.65L159.457 38Z" fill="#8AB4E9"/><defs><clipPath id="clip0_1977_4246"><path fill="#fff" transform="translate(187.066 7.729)" d="M0 0h92.338v29.981H0z"/></clipPath></defs></svg>